<?xml version="1.0" encoding="UTF-8"?><svg id="Layer_1" xmlns="http://www.w3.org/2000/svg" viewBox="0 0 225 225"><defs><style>.cls-1{fill:#777;}</style></defs><path class="cls-1" d="m112.77,226.66c-33.78,0-67.56,0-101.34,0-3.61,0-3.98-.28-3.38-3.84,1.19-7.08,2.42-14.16,3.81-21.2,1.92-9.7,4.73-19.18,6.65-28.88.78-3.96,2.15-7.79,3.76-11.52.59-1.37,1.54-2.23,3-2.76,5.94-2.15,12.15-3.22,18.27-4.66,8.62-2.03,17.3-3.81,25.5-7.3,3.76-1.6,7.2-3.67,10.07-6.62,2.3-2.37,4.83-4.56,7.93-5.68,3.32-1.2,3.87-3.63,3.71-6.51-.12-2.17-.49-4.3-1.61-6.28-1.14-2.01-1.9-4.24-2.31-6.51-.79-4.31-2.76-7.91-5.13-11.62-3.42-5.35-6.74-10.95-6.69-17.87.07-8.29-.03-16.58,1.38-24.76,2.04-11.8,9.01-20.17,19.02-26.25,6.27-3.8,13.11-5.83,20.42-6.19,3.77-.19,7.4.24,10.51,2.81,2.87,2.37,6.51,2.92,10,3.75,7.25,1.71,12.97,5.51,16.31,12.33,1.63,3.34,1.96,7.04,2.08,10.7.18,5.19-.16,10.4.43,15.58.1.9.03,1.87.52,2.62,2.3,3.53,1.55,7.29.84,11-.92,4.86-3.03,9.25-5.89,13.28-1.6,2.25-2.82,4.59-3.45,7.4-.75,3.35-2.41,6.49-3.49,9.78-1.62,4.94-2.13,9.91.3,14.79.62,1.24,1.44,2.36,2.66,2.97,3.93,1.95,6.54,5.3,9.28,8.53,2.29,2.69,5.07,4.53,8.49,5.7,7.16,2.45,14.21,5.24,21.31,7.88,5.23,1.95,10.59,3.56,15.16,6.96,3.84,2.86,6.49,6.31,6.74,11.29.14,2.73,1.04,5.31,2.31,7.69,2.15,4.05,2.89,8.51,3.7,12.9,1.7,9.21,2.72,18.52,3.96,27.79.36,2.69.38,2.7-2.33,2.7-30.18,0-60.37,0-90.55,0-3.98,0-7.96,0-11.95,0Z"/></svg>