<svg width="16" height="16" viewBox="0 0 16 16" fill="none" xmlns="http://www.w3.org/2000/svg">
<path fill-rule="evenodd" clip-rule="evenodd" d="M11.7123 12.7729C12.0052 13.0658 12.4801 13.0658 12.7729 12.7729C13.0658 12.48 13.0658 12.0052 12.7729 11.7123L9.06065 7.99998L12.7729 4.2877C13.0658 3.99481 13.0658 3.51993 12.7729 3.22704C12.48 2.93415 12.0052 2.93415 11.7123 3.22704L7.99999 6.93932L4.28766 3.22699C3.99477 2.9341 3.5199 2.9341 3.227 3.22699C2.93411 3.51989 2.93411 3.99476 3.227 4.28765L6.93933 7.99998L3.22699 11.7123C2.9341 12.0052 2.9341 12.4801 3.22699 12.773C3.51989 13.0659 3.99476 13.0659 4.28765 12.773L7.99999 9.06064L11.7123 12.7729Z" fill="white"/>
</svg>
