<svg width="16" height="16" viewBox="0 0 16 16" fill="none" xmlns="http://www.w3.org/2000/svg">
<path fill-rule="evenodd" clip-rule="evenodd" d="M2 3.75C2 3.33579 2.33579 3 2.75 3H12.75C13.1642 3 13.5 3.33579 13.5 3.75C13.5 4.16421 13.1642 4.5 12.75 4.5H2.75C2.33579 4.5 2 4.16421 2 3.75ZM2 7.75C2 7.33579 2.33579 7 2.75 7H12.75C13.1642 7 13.5 7.33579 13.5 7.75C13.5 8.16421 13.1642 8.5 12.75 8.5H2.75C2.33579 8.5 2 8.16421 2 7.75ZM2.75 11C2.33579 11 2 11.3358 2 11.75C2 12.1642 2.33579 12.5 2.75 12.5H12.75C13.1642 12.5 13.5 12.1642 13.5 11.75C13.5 11.3358 13.1642 11 12.75 11H2.75Z" fill="white"/>
</svg>
